# xmcd CD database file
#
# Track frame offsets:
#	150
#	26825
#	49700
#
# Disc length: 996 seconds
#
# Revision: 4
# Processed by: cddbd v1.5.1PL2 Copyright (c) Steve Scherf et al.
# Submitted via: CDex 1.51
#
DISCID=1f03e203
DTITLE=Misia - sweetness
DYEAR=1999
DGENRE=JPop
TTITLE0=sweetness
TTITLE1=愛しい人
TTITLE2=wasurenai hibi (HEX HECTOR'S RADIO MIX)
EXTD=YEAR: 1999
EXTT0=
EXTT1=
EXTT2=
PLAYORDER=
